<svg width="10" height="11" viewBox="0 0 10 11" fill="none" xmlns="http://www.w3.org/2000/svg">
<g opacity="0.5">
<path d="M4.72522 2.11006C6.40391 2.11006 8.21939 3.42814 8.21939 5.46745C8.21939 7.17101 6.73965 8.83727 4.72522 8.83727C3.00922 8.83727 1.24348 7.46945 1.24348 5.46745C1.24348 3.76388 2.73565 2.11006 4.72522 2.11006ZM4.72522 0.866577C2.18852 0.866577 0 2.93075 0 5.46745C0 8.01658 2.18852 10.0808 4.72522 10.0808C7.27435 10.0808 9.46287 8.01658 9.46287 5.46745C9.46287 2.93075 7.27435 0.866577 4.72522 0.866577Z" fill="#404040"/>
<rect x="3.64526" y="7.65222" width="0.956522" height="3.34783" rx="0.478261" fill="#404040"/>
<rect x="5.08008" y="7.65222" width="0.956522" height="3.34783" rx="0.478261" fill="#404040"/>
<rect x="3.64526" width="0.956522" height="3.34783" rx="0.478261" fill="#404040"/>
<rect x="5.08008" width="0.956522" height="3.34783" rx="0.478261" fill="#404040"/>
</g>
</svg>
