<svg width="20" height="20" viewBox="0 0 20 20" fill="none" xmlns="http://www.w3.org/2000/svg">
<path d="M16.1534 18.7381L16.1734 18.7183L18.9597 15.9512C18.9541 15.9474 18.9479 15.9433 18.9413 15.939L15.1013 13.6694H15.0764L14.8738 13.5477C14.857 13.5452 14.8272 13.5423 14.782 13.5423C14.6978 13.5423 14.6403 13.5607 14.5764 13.6123L13.3994 14.8107L13.3933 14.8169L13.3933 14.8169C13.2047 15.0056 12.9881 15.0916 12.8651 15.1327L12.8645 15.1329L12.8626 15.1335C12.7973 15.1553 12.6153 15.216 12.4106 15.216H12.3114L12.2142 15.1965L11.9503 15.1437C11.6311 15.08 11.2743 14.9229 10.9288 14.7464C10.5303 14.5427 10.0693 14.2436 9.55616 13.8696L9.55602 13.8695C9.00336 13.4665 8.3984 12.9223 7.74401 12.2535C7.07616 11.5991 6.53482 10.9965 6.13821 10.4488C5.77161 9.94256 5.47701 9.4823 5.27353 9.07647C5.05019 8.64442 4.88131 8.21331 4.80129 7.79291L4.78365 7.70025V7.60592C4.78365 7.41239 4.82887 7.24443 4.86666 7.13098C4.90782 7.00743 4.99381 6.79092 5.18218 6.60243C5.18218 6.60243 5.18218 6.60243 5.18218 6.60243L6.21963 5.5643C6.25814 5.52576 6.28942 5.47718 6.30833 5.38733C6.31173 5.37114 6.31266 5.36054 6.31289 5.35488C6.313 5.35221 6.31297 5.35036 6.31292 5.34922C6.31291 5.34909 6.3129 5.34896 6.3129 5.34885L6.31249 5.34786C6.31195 5.34665 6.31096 5.34461 6.30933 5.34171L6.30264 5.32981L6.29628 5.31773L4.05438 1.06163C4.05242 1.05888 4.05046 1.05617 4.04849 1.05351L1.28253 3.82128L1.26394 3.83988L1.24439 3.85748C1.21669 3.88243 1.1692 3.93636 1.11592 4.0468C1.06532 4.15168 1.03664 4.24098 1.02173 4.31609C1.01787 4.40669 1.0106 4.5402 1.00199 4.69526C0.993709 4.84442 1.00932 5.11236 1.07587 5.53188C1.13579 5.90962 1.25446 6.38679 1.44247 6.97135C1.61813 7.5175 1.88918 8.14893 2.26588 8.86912L2.2659 8.86915C2.63268 9.57041 3.12631 10.3507 3.75435 11.2114C4.36489 12.0481 5.1458 12.9396 6.10481 13.8855L6.11396 13.8945L6.11391 13.8946C7.32209 15.1173 8.43918 16.0558 9.46469 16.7267L9.4647 16.7267C10.5326 17.4254 11.4609 17.9316 12.2541 18.2606L12.2541 18.2606C13.0836 18.6047 13.7347 18.7989 14.2241 18.8738C14.8203 18.965 15.1891 19 15.3749 19C15.4705 19 15.5258 18.9968 15.5506 18.9943L16.1534 18.7381ZM16.1534 18.7381L16.1346 18.7591C16.1094 18.7871 16.0556 18.8345 15.946 18.8874L15.9455 18.8876C15.8359 18.9406 15.7434 18.9695 15.6666 18.9837C15.6248 18.9868 15.5858 18.9908 15.5607 18.9933L15.5509 18.9943L16.1534 18.7381Z" stroke="#F0AF3B" stroke-width="2"/>
</svg>
