<svg width="20" height="23" viewBox="0 0 20 23" fill="none" xmlns="http://www.w3.org/2000/svg">
<path d="M9.88 4.41201C13.39 4.41201 17.186 7.16801 17.186 11.432C17.186 14.994 14.092 18.478 9.88 18.478C6.292 18.478 2.6 15.618 2.6 11.432C2.6 7.87001 5.72 4.41201 9.88 4.41201ZM9.88 1.81201C4.576 1.81201 0 6.12801 0 11.432C0 16.762 4.576 21.078 9.88 21.078C15.21 21.078 19.786 16.762 19.786 11.432C19.786 6.12801 15.21 1.81201 9.88 1.81201Z" fill="#F0AF3B"/>
<rect x="7.62207" y="16" width="2" height="7" rx="1" fill="#F0AF3B"/>
<rect x="10.6221" y="16" width="2" height="7" rx="1" fill="#F0AF3B"/>
<rect x="7.62207" width="2" height="7" rx="1" fill="#F0AF3B"/>
<rect x="10.6221" width="2" height="7" rx="1" fill="#F0AF3B"/>
</svg>
